<?xml version="1.0" encoding="UTF-8"?>
<svg version="1.1" xmlns="http://www.w3.org/2000/svg" width="512" height="512">
  <path
    d="M0 0 C1.4978359 -0.00418221 2.99566863 -0.00966455 4.49349558 -0.01631981 C8.57400039 -0.03067691 12.65430154 -0.02656047 16.73481703 -0.019153 C21.14938684 -0.01439933 25.56391397 -0.02695051 29.97846985 -0.03717041 C38.61317387 -0.05432077 47.24780499 -0.05520626 55.88252161 -0.04995751 C62.90440163 -0.04590759 69.92626019 -0.0473691 76.94813919 -0.05270576 C77.94950311 -0.05345419 78.95086703 -0.05420261 79.9825753 -0.05497371 C82.0171804 -0.05650527 84.05178549 -0.05804362 86.08639057 -0.05958868 C105.14403787 -0.07330008 124.20164406 -0.06788557 143.25929041 -0.05640347 C160.67242688 -0.04647228 178.08545708 -0.05941222 195.49857716 -0.08333766 C213.40411869 -0.10775321 231.30961076 -0.11733051 249.2151686 -0.11068493 C259.25748449 -0.1071982 269.29971868 -0.10938866 279.34202194 -0.12693596 C287.89057176 -0.14168866 296.43898233 -0.14225335 304.9875295 -0.12486505 C309.34388855 -0.11637795 313.69999917 -0.11414912 318.05634499 -0.1295166 C322.05368654 -0.14344241 326.05056867 -0.13850046 330.04788418 -0.11927737 C331.48449462 -0.11554106 332.92114256 -0.11836998 334.35771935 -0.12888902 C348.72639101 -0.22651759 361.56251528 2.46910046 373.75674438 10.38768005 C374.53533813 10.88912537 375.31393188 11.39057068 376.11611938 11.9072113 C388.26031299 20.51283815 396.38250101 34.5726982 399.37954712 49.02073669 C402.05678986 65.82065151 398.42616855 80.94421855 389.75674438 95.38768005 C387.00055472 99.00578769 384.01680908 102.2215992 380.75674438 105.38768005 C380.2166272 105.94842224 379.67651001 106.50916443 379.12002563 107.0868988 C367.11443252 118.6086393 350.05443225 121.87502842 334.03205872 121.7484436 C332.8203868 121.75100688 331.60871488 121.75357015 330.36032563 121.7562111 C327.03743127 121.76026287 323.71508034 121.75102347 320.39225233 121.73587692 C316.79394777 121.72281666 313.19565743 121.72731301 309.59733582 121.72958374 C303.37640168 121.73115022 297.15556257 121.72180686 290.93465233 121.70487022 C281.94048259 121.68039935 272.94635839 121.67266672 263.95215897 121.66890625 C249.35663997 121.6623544 234.76117152 121.64242774 220.16567993 121.61399841 C205.99478405 121.58642497 191.82390194 121.5652075 177.65298462 121.55247498 C176.77822332 121.55168681 175.90346203 121.55089863 175.00219282 121.55008658 C170.6133942 121.54617122 166.22459549 121.54238016 161.83579671 121.53865087 C125.4760677 121.50759442 89.11643226 121.45231272 52.75674438 121.38768005 C52.75674438 140.85768005 52.75674438 160.32768005 52.75674438 180.38768005 C12.82674438 180.38768005 -27.10325562 180.38768005 -68.24325562 180.38768005 C-68.36416472 148.52141433 -68.36416472 148.52141433 -68.38973999 135.1181488 C-68.40750727 125.88128128 -68.42833911 116.64449615 -68.46957397 107.40769958 C-68.49959715 100.67913012 -68.51885909 93.95062781 -68.5255211 87.22199321 C-68.52941163 83.66348242 -68.53847162 80.10516366 -68.56044579 76.54671478 C-68.58485181 72.56165263 -68.58521739 68.5769184 -68.58383179 64.59178162 C-68.59461761 63.42867966 -68.60540344 62.2655777 -68.61651611 61.06723022 C-68.55500754 44.63227399 -62.83149587 29.30450935 -51.24325562 17.38768005 C-35.97038326 4.0650023 -19.96293488 -0.09182935 0 0 Z "
    fill="#0ff" transform="translate(90.24325561523438,1.6123199462890625)" />
  <path
    d="M0 0 C44.76585624 -0.06615744 89.53166631 -0.12154186 134.29755746 -0.15319599 C139.58460219 -0.15694803 144.87164683 -0.16083101 150.15869141 -0.16479492 C151.73750034 -0.16597532 151.73750034 -0.16597532 153.3482044 -0.16717956 C170.38264425 -0.18022748 187.41705367 -0.20387795 204.45147547 -0.23145839 C221.93508338 -0.25952966 239.41867537 -0.27617991 256.90230489 -0.28226548 C267.68747176 -0.28637835 278.47255263 -0.2993607 289.25769302 -0.3237494 C296.65711146 -0.33962783 304.05648554 -0.34439558 311.45591977 -0.34050413 C315.72267678 -0.33858587 319.98928367 -0.34149161 324.25601387 -0.35761642 C328.16851524 -0.37229399 332.08076658 -0.37290184 335.99327984 -0.36269668 C337.40264117 -0.36143676 338.81201857 -0.36517554 340.22134861 -0.37464955 C357.46372983 -0.48374268 372.12057498 3.55753867 384.7578125 15.73046875 C385.86769531 16.85388672 385.86769531 16.85388672 387 18 C387.63679688 18.61488281 388.27359375 19.22976562 388.9296875 19.86328125 C399.21291099 30.53498207 403.91004405 45.25801234 404.4375 59.8125 C403.99307276 76.47852137 397.98214105 91.67145765 386.37890625 103.78515625 C369.77918732 119.24006698 351.30521037 121.19523665 329.61763 121.08229065 C328.18920614 121.07858911 326.76078104 121.07534182 325.3323552 121.07250541 C321.43504213 121.063469 317.53777723 121.04804638 313.6404897 121.03152263 C309.42729402 121.0147987 305.21408242 121.00408021 301.00086975 120.99261475 C293.71042334 120.97196146 286.41999744 120.94754354 279.12957191 120.92053413 C268.58897288 120.88148905 258.04836178 120.84817521 247.50773909 120.81623887 C230.40431495 120.76426366 213.30090929 120.70768389 196.19750977 120.64819336 C179.58781655 120.59042998 162.97811839 120.53484454 146.3684082 120.48217773 C145.34377168 120.47892802 144.31913516 120.4756783 143.26344905 120.4723301 C138.12290563 120.45603985 132.98236207 120.4397923 127.84181845 120.42356598 C85.2278552 120.28899823 42.61392558 120.14610034 0 120 C0 80.4 0 40.8 0 0 Z "
    fill="#0ff" transform="translate(22,229)" />
  <path
    d="M0 0 C39.93 0 79.86 0 121 0 C121 78.97413669 121 78.97413669 102.85546875 97.3046875 C89.92691127 109.50811385 74.59892182 114.59680076 57.0078125 114.3125 C40.63794709 113.34720081 27.52037651 106.46109499 16 95 C15.36191406 94.39671875 14.72382812 93.7934375 14.06640625 93.171875 C10.09982334 89.10811523 7.60422615 84.64550211 5.1875 79.5625 C4.75207886 78.64960205 4.75207886 78.64960205 4.30786133 77.71826172 C-0.04059216 68.05132499 -0.27671113 58.79508112 -0.1953125 48.33984375 C-0.19329834 47.11044067 -0.19128418 45.8810376 -0.18920898 44.61437988 C-0.17880513 40.05538155 -0.15088288 35.49643673 -0.125 30.9375 C-0.08375 20.728125 -0.0425 10.51875 0 0 Z "
    fill="#0ff" transform="translate(22,396)" />
</svg>