<svg width="12" height="8" viewBox="0 0 12 8" fill="none" xmlns="http://www.w3.org/2000/svg">
<path fill-rule="evenodd" clip-rule="evenodd" d="M0 0.75C0 0.335786 0.335786 0 0.75 0H11.25C11.6642 0 12 0.335786 12 0.75C12 1.16421 11.6642 1.5 11.25 1.5H0.75C0.335786 1.5 0 1.16421 0 0.75Z" fill="#E2F7FF"/>
<path fill-rule="evenodd" clip-rule="evenodd" d="M0 4C0 3.58579 0.335786 3.25 0.75 3.25H11.25C11.6642 3.25 12 3.58579 12 4C12 4.41421 11.6642 4.75 11.25 4.75H0.75C0.335786 4.75 0 4.41421 0 4Z" fill="#E2F7FF"/>
<path fill-rule="evenodd" clip-rule="evenodd" d="M0 7.25C0 6.83579 0.335786 6.5 0.75 6.5H11.25C11.6642 6.5 12 6.83579 12 7.25C12 7.66421 11.6642 8 11.25 8H0.75C0.335786 8 0 7.66421 0 7.25Z" fill="#E2F7FF"/>
</svg>
