<svg width="13" height="36" viewBox="0 0 13 36" fill="none" xmlns="http://www.w3.org/2000/svg">
<g clip-path="url(#clip0_2052_41)" filter="url(#filter0_d_2052_41)">
<path d="M6.57813 11.25C5.13601 11.25 3.75296 10.6771 2.73323 9.65737C1.7135 8.63764 1.14063 7.25459 1.14062 5.81248C1.14062 3.60935 2.40625 1.63404 4.36586 0.78115C4.43492 0.75105 4.51145 0.742451 4.58547 0.756471C4.65949 0.770492 4.72758 0.806483 4.78085 0.859755C4.83412 0.913027 4.87011 0.981109 4.88413 1.05513C4.89815 1.12915 4.88955 1.20568 4.85945 1.27474C4.63445 1.79131 4.51563 2.45295 4.51563 3.18748C4.51563 5.77217 6.61844 7.87498 9.20313 7.87498C9.93766 7.87498 10.5993 7.75615 11.1159 7.53115C11.1849 7.50105 11.2615 7.49245 11.3355 7.50647C11.4095 7.52049 11.4776 7.55648 11.5308 7.60975C11.5841 7.66303 11.6201 7.73111 11.6341 7.80513C11.6482 7.87915 11.6396 7.95568 11.6095 8.02474C10.7566 9.98435 8.78125 11.25 6.57813 11.25Z" fill="#00FFFF"/>
</g>
<g clip-path="url(#clip1_2052_41)" filter="url(#filter1_d_2052_41)">
<path d="M6.39062 24.7656C6.25387 24.7656 6.12272 24.7113 6.02602 24.6146C5.92932 24.5179 5.875 24.3868 5.875 24.25V23.125C5.875 22.9882 5.92932 22.8571 6.02602 22.7604C6.12272 22.6637 6.25387 22.6094 6.39062 22.6094C6.52738 22.6094 6.65853 22.6637 6.75523 22.7604C6.85193 22.8571 6.90625 22.9882 6.90625 23.125V24.25C6.90625 24.3868 6.85193 24.5179 6.75523 24.6146C6.65853 24.7113 6.52738 24.7656 6.39062 24.7656Z" fill="#00FFFF"/>
<path d="M6.39062 33.3906C6.25387 33.3906 6.12272 33.3363 6.02602 33.2396C5.92932 33.1429 5.875 33.0118 5.875 32.875V31.75C5.875 31.6132 5.92932 31.4821 6.02602 31.3854C6.12272 31.2887 6.25387 31.2344 6.39062 31.2344C6.52738 31.2344 6.65853 31.2887 6.75523 31.3854C6.85193 31.4821 6.90625 31.6132 6.90625 31.75V32.875C6.90625 33.0118 6.85193 33.1429 6.75523 33.2396C6.65853 33.3363 6.52738 33.3906 6.39062 33.3906Z" fill="#00FFFF"/>
<path d="M9.04234 25.8639C8.94039 25.8639 8.84072 25.8337 8.75595 25.777C8.67117 25.7204 8.60509 25.6399 8.56606 25.5457C8.52703 25.4515 8.5168 25.3478 8.53666 25.2478C8.55653 25.1478 8.60559 25.056 8.67766 24.9838L9.47313 24.1884C9.57025 24.0938 9.70072 24.0412 9.83629 24.0421C9.97186 24.043 10.1016 24.0973 10.1975 24.1931C10.2934 24.289 10.3476 24.4188 10.3485 24.5543C10.3494 24.6899 10.2969 24.8204 10.2023 24.9175L9.4068 25.713C9.35898 25.7609 9.30217 25.7989 9.23963 25.8248C9.17708 25.8507 9.11004 25.864 9.04234 25.8639Z" fill="#00FFFF"/>
<path d="M2.94344 31.9628C2.84145 31.9628 2.74176 31.9325 2.65697 31.8759C2.57218 31.8192 2.5061 31.7387 2.46709 31.6444C2.42808 31.5502 2.41789 31.4465 2.4378 31.3465C2.45772 31.2465 2.50685 31.1546 2.57898 31.0825L3.37445 30.287C3.4221 30.2381 3.47898 30.1992 3.54181 30.1724C3.60463 30.1456 3.67215 30.1316 3.74043 30.1312C3.80871 30.1307 3.8764 30.1439 3.93958 30.1698C4.00275 30.1957 4.06014 30.2339 4.10843 30.2822C4.15671 30.3305 4.19492 30.3879 4.22085 30.451C4.24677 30.5142 4.25989 30.5819 4.25944 30.6502C4.25899 30.7185 4.24498 30.786 4.21823 30.8488C4.19148 30.9116 4.15251 30.9685 4.10359 31.0162L3.30813 31.8116C3.26029 31.8596 3.20345 31.8977 3.14087 31.9236C3.07828 31.9496 3.01119 31.9629 2.94344 31.9628Z" fill="#00FFFF"/>
<path d="M11.2656 28.5156H10.1406C10.0039 28.5156 9.87272 28.4613 9.77602 28.3646C9.67932 28.2679 9.625 28.1368 9.625 28C9.625 27.8632 9.67932 27.7321 9.77602 27.6354C9.87272 27.5387 10.0039 27.4844 10.1406 27.4844H11.2656C11.4024 27.4844 11.5335 27.5387 11.6302 27.6354C11.7269 27.7321 11.7812 27.8632 11.7812 28C11.7812 28.1368 11.7269 28.2679 11.6302 28.3646C11.5335 28.4613 11.4024 28.5156 11.2656 28.5156Z" fill="#00FFFF"/>
<path d="M2.64062 28.5156H1.51562C1.37887 28.5156 1.24772 28.4613 1.15102 28.3646C1.05432 28.2679 1 28.1368 1 28C1 27.8632 1.05432 27.7321 1.15102 27.6354C1.24772 27.5387 1.37887 27.4844 1.51562 27.4844H2.64062C2.77738 27.4844 2.90853 27.5387 3.00523 27.6354C3.10193 27.7321 3.15625 27.8632 3.15625 28C3.15625 28.1368 3.10193 28.2679 3.00523 28.3646C2.90853 28.4613 2.77738 28.5156 2.64062 28.5156Z" fill="#00FFFF"/>
<path d="M9.83781 31.9628C9.77006 31.9629 9.70297 31.9496 9.64038 31.9236C9.5778 31.8977 9.52096 31.8596 9.47312 31.8116L8.67766 31.0162C8.58306 30.9191 8.53052 30.7886 8.53141 30.653C8.53231 30.5174 8.58656 30.3877 8.68243 30.2918C8.77829 30.1959 8.90806 30.1417 9.04363 30.1408C9.17921 30.1399 9.30968 30.1924 9.4068 30.287L10.2023 31.0825C10.2744 31.1546 10.3235 31.2465 10.3434 31.3465C10.3634 31.4465 10.3532 31.5502 10.3142 31.6444C10.2751 31.7387 10.2091 31.8192 10.1243 31.8759C10.0395 31.9325 9.9398 31.9628 9.83781 31.9628Z" fill="#00FFFF"/>
<path d="M3.73891 25.8639C3.6712 25.864 3.60414 25.8508 3.54159 25.8249C3.47904 25.799 3.42224 25.7609 3.37445 25.713L2.57898 24.9175C2.48439 24.8204 2.43185 24.6899 2.43274 24.5543C2.43364 24.4188 2.48789 24.289 2.58375 24.1931C2.67962 24.0973 2.80939 24.043 2.94496 24.0421C3.08053 24.0412 3.211 24.0938 3.30812 24.1884L4.10359 24.9838C4.17566 25.056 4.22472 25.1478 4.24459 25.2478C4.26445 25.3478 4.25422 25.4515 4.21519 25.5457C4.17616 25.6399 4.11008 25.7204 4.0253 25.777C3.94053 25.8337 3.84086 25.8639 3.73891 25.8639Z" fill="#00FFFF"/>
<path d="M6.39062 30.3906C5.9178 30.3906 5.4556 30.2504 5.06246 29.9877C4.66933 29.725 4.36292 29.3517 4.18198 28.9149C4.00103 28.478 3.95369 27.9973 4.04594 27.5336C4.13818 27.0699 4.36586 26.6439 4.7002 26.3096C5.03453 25.9752 5.4605 25.7476 5.92424 25.6553C6.38797 25.5631 6.86865 25.6104 7.30548 25.7914C7.74231 25.9723 8.11567 26.2787 8.37836 26.6718C8.64104 27.065 8.78125 27.5272 8.78125 28C8.78051 28.6338 8.5284 29.2414 8.08023 29.6896C7.63206 30.1378 7.02443 30.3899 6.39062 30.3906Z" fill="#00FFFF"/>
</g>
<defs>
<filter id="filter0_d_2052_41" x="-0.609375" y="0" width="14" height="14" filterUnits="userSpaceOnUse" color-interpolation-filters="sRGB">
<feFlood flood-opacity="0" result="BackgroundImageFix"/>
<feColorMatrix in="SourceAlpha" type="matrix" values="0 0 0 0 0 0 0 0 0 0 0 0 0 0 0 0 0 0 127 0" result="hardAlpha"/>
<feOffset dy="1"/>
<feGaussianBlur stdDeviation="0.5"/>
<feColorMatrix type="matrix" values="0 0 0 0 0 0 0 0 0 0 0 0 0 0 0 0 0 0 0.15 0"/>
<feBlend mode="normal" in2="BackgroundImageFix" result="effect1_dropShadow_2052_41"/>
<feBlend mode="normal" in="SourceGraphic" in2="effect1_dropShadow_2052_41" result="shape"/>
</filter>
<filter id="filter1_d_2052_41" x="-0.609375" y="22" width="14" height="14" filterUnits="userSpaceOnUse" color-interpolation-filters="sRGB">
<feFlood flood-opacity="0" result="BackgroundImageFix"/>
<feColorMatrix in="SourceAlpha" type="matrix" values="0 0 0 0 0 0 0 0 0 0 0 0 0 0 0 0 0 0 127 0" result="hardAlpha"/>
<feOffset dy="1"/>
<feGaussianBlur stdDeviation="0.5"/>
<feColorMatrix type="matrix" values="0 0 0 0 0 0 0 0 0 0 0 0 0 0 0 0 0 0 0.15 0"/>
<feBlend mode="normal" in2="BackgroundImageFix" result="effect1_dropShadow_2052_41"/>
<feBlend mode="normal" in="SourceGraphic" in2="effect1_dropShadow_2052_41" result="shape"/>
</filter>
<clipPath id="clip0_2052_41">
<rect width="12" height="12" fill="white" transform="translate(0.390625)"/>
</clipPath>
<clipPath id="clip1_2052_41">
<rect width="12" height="12" fill="white" transform="translate(0.390625 22)"/>
</clipPath>
</defs>
</svg>
